**ABCDEFGHIJKLMNOPQRSTUVWXYZabcdefghijklmnopqrstuvwxyz**************************
**PARASOLID !"#$%&'()*+,-./:;<=>?@[\]^_`{|}~0123456789**************************
**PART1;
MC=unknown;
MC_MODEL=unknown;
MC_ID=unknown;
OS=unknown;
OS_RELEASE=unknown;
FRU=sdl_parasolid_customer_support;
APPL=parasolid_acceptance_tests;
SITE=unknown;
USER=unknown;
FORMAT=text;
GUISE=transmit;
KEY=Controls_Plant_1;
FILE=Controls_Plant_1.xmt_txt;
DATE=unknown;
**PART2;
SCH=SCH_1601186_16100;
USFLD_SIZE=0;
**PART3;
**END_OF_HEADER*****************************************************************
T51 : TRANSMIT FILE created by modeller version 160118623 SCH_1601186_16100_1300
6186 0 74 255 5 1 5 0 2 3 4 5 6 12 255 2 89 7 8 0 0 0 0 1e3 1e-8 0 9 3 1 0 1 1 1
0 11 12 13 14 15 16 12 3 113 17 18 0 0 0 0 1e3 1e-8 0 2 4 1 0 1 1 19 20 21 0 22
 23 0 12 4 113 24 25 0 0 0 0 1e3 1e-8 0 3 5 1 0 1 1 26 27 28 0 29 30 0 12 5 113
 31 32 0 0 0 0 1e3 1e-8 0 4 6 1 0 1 1 33 34 35 0 36 37 0 12 6 113 38 39 0 0 0 0
 1e3 1e-8 0 5 0 1 0 1 1 40 41 42 0 43 44 0 81 255 1 38 101 45 6 46 0 0 0 47 70 1
1 CI9 list_type0 0 1 uI10 notransmit0 0 1 lCCCDCCDI12 finger_index0 0 1 dI12 fin
ger_block1012 0 CZ39 0 4 T6 0 0 5 20 1 48 48 13 255 40 3 0 6 0 49 0 0 50 0 51 25
5 41 18 0 51 52 0 0 +.38 149914043047481e-41 -.23 1 510341196927923e-26 -5103411
96927923e-26 .25 -510341196927923e-26 1 0 31 255 42 40 0 44 53 0 0 +.38 15019911
63540805e-42 -.23 -1 -510341196927923e-26 510341196927923e-26 510341196927923e-2
6 0 1 .23 19 255 43 1 0 6 50 0 54 V16 255 44 37 55 ?56 0 57 42 0 0 6 81 1 55 108
 58 44 0 0 59 60 61 17 255 56 0 62 56 56 0 63 44 0 0 +16 57 32 60 ?64 44 65 53 0
 0 6 81 1 60 109 58 57 0 0 55 66 67 17 64 0 68 64 64 0 69 57 0 0 +16 65 27 66 ?7
0 57 71 72 0 0 6 31 53 35 0 57 72 42 0 +.53 765511795391886e-27 -.23000000000076
55 1 510341196927923e-26 -510341196927923e-26 -510341196927923e-26 0 -1 .23 31 7
2 30 0 65 73 53 0 -.51 663443556006301e-27 -.2300000000006635 1 510341196927923e
-26 -510341196927923e-26 -510341196927923e-26 0 -1 .25 31 73 25 0 71 74 72 0 -.4
 102068239385586e-27 -.230000000000102 -1 -510341196927923e-26 510341196927923e-
26 510341196927923e-26 0 1 .25 16 71 22 75 ?76 65 77 73 0 0 6 31 74 95 0 77 78 7
3 0 +.53 765511795391886e-27 -.2300000000007655 -1 -510341196927923e-26 51034119
6927923e-26 510341196927923e-26 -1 0 .17 16 77 81 79 ?80 71 81 74 0 0 6 31 78 96
 0 81 0 74 0 +.38 149914043047481e-41 -.23 1 510341196927923e-26 -51034119692792
3e-26 -510341196927923e-26 1 0 .17 16 81 82 82 ?83 77 0 78 0 0 6 81 1 82 113 58
 81 0 0 79 0 84 17 83 0 85 83 83 0 86 81 0 0 +15 255 85 71 0 83 87 62 17 86 0 88
 86 86 0 83 81 0 0 -15 88 89 0 86 89 0 14 255 89 87 59 ?0 90 91 40 92 -0 0 0 90
 54 81 1 59 107 58 89 93 0 94 55 95 14 90 60 94 ?89 96 97 40 98 +0 0 89 96 54 15
 91 88 0 99 89 88 51 92 92 0 89 0 98 0 +.38 149914043047481e-41 -.23 1 510341196
927923e-26 -510341196927923e-26 .17 -510341196927923e-26 1 0 13 54 4 0 0 0 0 0 0
 43 49 14 49 15 100 ?87 0 101 40 52 +0 0 87 0 54 81 1 100 102 58 49 102 0 0 103
 104 14 87 9 103 ?51 49 85 40 105 +0 0 51 49 54 15 101 76 0 80 49 68 50 255 52 1
7 0 49 105 41 0 +.53 765511795391886e-27 -.2300000000007655 1 510341196927923e-2
6 -510341196927923e-26 -510341196927923e-26 1 0 50 105 11 0 87 106 52 0 +.38 149
914043047481e-41 -.23 -1 -510341196927923e-26 510341196927923e-26 51034119692792
3e-26 -1 0 54 255 106 54 0 96 98 105 0 +.51 663443556006301e-27 -.23000000000066
35 1 510341196927923e-26 -510341196927923e-26 .23 .02 -510341196927923e-26 0 -1
 14 96 47 107 ?90 51 108 40 106 +0 0 90 51 54 54 98 67 0 90 92 106 0 +.4 1020682
393855862e-28 -.230000000000102 -1 -510341196927923e-26 510341196927923e-26 .23
 .02 510341196927923e-26 0 1 81 1 107 105 58 96 109 0 110 94 111 14 51 2 110 ?96
 87 112 40 41 +0 0 96 87 54 15 108 48 0 69 96 113 17 69 0 108 69 69 0 64 57 0 0
 -15 113 49 0 114 96 0 17 114 0 113 114 114 0 70 65 0 0 -17 70 0 112 70 70 0 114
 65 0 0 +15 112 28 0 70 51 115 15 115 23 0 76 51 0 17 76 0 115 76 76 0 116 71 0
 0 +17 116 0 117 116 116 0 76 71 0 0 -15 117 62 0 116 90 0 81 1 110 104 58 51 11
8 0 103 107 119 80 255 1 58 0 120 8001 0 0 0 0 3 5 0 0 0 FFFFTFTFFFFFFF2 91 255
 118 0 121 51 0 110 0 122 81 1 103 103 58 87 122 0 100 110 123 83 255 3 119 1 0
 .61 91 122 0 121 87 0 103 118 102 83 3 123 1 0 .61 90 255 121 19 0 6 0 124 2 10
2 91 102 0 121 49 0 100 122 0 90 124 68 0 6 121 125 2 109 90 125 79 0 6 124 126
 2 93 91 109 0 124 96 0 107 127 0 91 127 0 124 90 0 94 0 109 81 1 94 106 58 90 1
27 0 107 59 128 83 3 128 1 0 .61 81 2 126 98 129 6 125 130 0 0 131 0 91 93 0 125
 89 0 59 0 0 80 2 129 132 133 8004 0 0 0 0 3 5 0 0 0 FFTFFFFFFFFFFF2 3 81 1 130
 99 134 6 126 46 0 0 135 83 1 131 1 80 1 134 136 137 9000 0 0 0 0 3 5 0 0 0 FFTF
FFFFFFFFFF1 81 1 46 100 138 6 130 38 0 0 139 82 255 1 135 51 80 1 138 134 140 90
00 0 0 0 0 3 5 0 0 0 FFTFFFFFFFFFFF3 84 255 6 139 roue_479 255 13 140 AdamsPartN
ame79 12 137 UG2/ADAMS_ID79 16 133 SDL/TYSA_DENSITY79 15 120 SDL/TYSA_COLOUR83 3
 111 1 0 .61 17 80 0 101 80 80 0 99 77 0 0 +15 68 33 0 64 49 0 17 99 0 91 99 99
 0 80 77 0 0 -83 3 104 1 0 .61 15 97 61 0 63 90 117 17 63 0 97 63 63 0 56 44 0 0
 -83 3 95 1 0 .61 15 62 38 0 56 87 0 81 1 79 112 58 77 0 0 75 82 141 83 3 84 1 0
 .61 81 1 75 111 58 71 0 0 66 79 142 83 3 141 1 0 .61 81 1 66 110 58 65 0 0 60 7
5 143 83 3 142 1 0 .61 83 3 143 1 0 .61 83 3 67 1 0 .61 83 3 61 1 0 .61 19 50 5
 0 6 0 43 40 S74 20 48 5 0 126 130 46 38 82 0 0 0 0 0 0 0 0 0 0 0 0 0 0 0 80 1 4
5 144 145 9000 0 0 0 0 3 5 0 0 0 FFTFFFFFFFFFFF3 84 5 47 CSG_379 15 145 AdamsObj
ectName81 1 31 101 45 5 146 0 0 0 147 70 32 0 4 T5 0 0 5 20 1 148 148 13 33 3 0
 5 0 149 0 0 150 0 51 34 18 0 151 152 0 0 +.38 1331748038570458e-42 -.23 1 51034
1196927923e-26 -510341196927923e-26 .25 -510341196927923e-26 1 0 31 35 40 0 37 1
53 0 0 +.38 1337908095254836e-42 -.23 -1 -510341196927923e-26 510341196927923e-2
6 510341196927923e-26 0 1 .23 19 36 1 0 5 150 0 154 V16 37 37 155 ?156 0 157 35
 0 0 5 81 1 155 108 58 37 0 0 158 159 160 17 156 0 161 156 156 0 162 37 0 0 +16
 157 32 159 ?163 37 164 153 0 0 5 81 1 159 109 58 157 0 0 155 165 166 17 163 0 1
67 163 163 0 168 157 0 0 +16 164 27 165 ?169 157 170 171 0 0 5 31 153 35 0 157 1
71 35 0 +.53 765511795391886e-27 -.2300000000007655 1 510341196927923e-26 -51034
1196927923e-26 -510341196927923e-26 0 -1 .23 31 171 30 0 164 172 153 0 -.51 6634
43556006301e-27 -.2300000000006635 1 510341196927923e-26 -510341196927923e-26 -5
10341196927923e-26 0 -1 .25 31 172 25 0 170 173 171 0 -.4 102068239385586e-27 -.
230000000000102 -1 -510341196927923e-26 510341196927923e-26 510341196927923e-26
 0 1 .25 16 170 22 174 ?175 164 176 172 0 0 5 31 173 95 0 176 177 172 0 +.53 765
511795391886e-27 -.2300000000007655 -1 -510341196927923e-26 510341196927923e-26
 510341196927923e-26 -1 0 .17 16 176 81 178 ?179 170 180 173 0 0 5 31 177 96 0 1
80 0 173 0 +.38 1331748038570458e-42 -.23 1 510341196927923e-26 -510341196927923
e-26 -510341196927923e-26 1 0 .17 16 180 82 181 ?182 176 0 177 0 0 5 81 1 181 11
3 58 180 0 0 178 0 183 17 182 0 184 182 182 0 185 180 0 0 +15 184 71 0 182 186 1
61 17 185 0 187 185 185 0 182 180 0 0 -15 187 89 0 185 188 0 14 188 87 158 ?0 18
9 190 33 191 -0 0 0 189 154 81 1 158 107 58 188 192 0 193 155 194 14 189 60 193
 ?188 195 196 33 197 +0 0 188 195 154 15 190 88 0 198 188 187 51 191 92 0 188 0
 197 0 +.38 1331748038570458e-42 -.23 1 510341196927923e-26 -510341196927923e-26
 .17 -510341196927923e-26 1 0 13 154 4 0 0 0 0 0 0 36 149 14 149 15 199 ?186 0 2
00 33 152 +0 0 186 0 154 81 1 199 102 58 149 201 0 0 202 203 14 186 9 202 ?151 1
49 184 33 204 +0 0 151 149 154 15 200 76 0 179 149 167 50 152 17 0 149 204 34 0
 +.53 765511795391886e-27 -.2300000000007655 1 510341196927923e-26 -510341196927
923e-26 -510341196927923e-26 1 0 50 204 11 0 186 205 152 0 +.38 1331748038570458
e-42 -.23 -1 -510341196927923e-26 510341196927923e-26 510341196927923e-26 -1 0 5
4 205 54 0 195 197 204 0 +.51 663443556006301e-27 -.2300000000006635 1 510341196
927923e-26 -510341196927923e-26 .23 .02 -510341196927923e-26 0 -1 14 195 47 206
 ?189 151 207 33 205 +0 0 189 151 154 54 197 67 0 189 191 205 0 +.4 102068239385
586e-27 -.230000000000102 -1 -510341196927923e-26 510341196927923e-26 .23 .02 51
0341196927923e-26 0 1 81 1 206 105 58 195 208 0 209 193 210 14 151 2 209 ?195 18
6 211 33 34 +0 0 195 186 154 15 207 48 0 168 195 212 17 168 0 207 168 168 0 163
 157 0 0 -15 212 49 0 213 195 0 17 213 0 212 213 213 0 169 164 0 0 -17 169 0 211
 169 169 0 213 164 0 0 +15 211 28 0 169 151 214 15 214 23 0 175 151 0 17 175 0 2
14 175 175 0 215 170 0 0 +17 215 0 216 215 215 0 175 170 0 0 -15 216 62 0 215 18
9 0 81 1 209 104 58 151 217 0 202 206 218 91 217 0 219 151 0 209 0 220 81 1 202
 103 58 186 220 0 199 209 221 83 3 218 1 0 .61 91 220 0 219 186 0 202 217 201 83
 3 221 1 0 .61 90 219 19 0 5 0 222 2 201 91 201 0 219 149 0 199 220 0 90 222 68
 0 5 219 223 2 208 90 223 79 0 5 222 224 2 192 91 208 0 222 195 0 206 225 0 91 2
25 0 222 189 0 193 0 208 81 1 193 106 58 189 225 0 206 158 226 83 3 226 1 0 .61
 81 2 224 98 129 5 223 227 0 0 228 0 91 192 0 223 188 0 158 0 0 81 1 227 99 134
 5 224 146 0 0 229 83 1 228 1 81 1 146 100 138 5 227 31 0 0 230 82 1 229 50 84 6
 230 roue_383 3 210 1 0 .61 17 179 0 200 179 179 0 198 176 0 0 +15 167 33 0 163
 149 0 17 198 0 190 198 198 0 179 176 0 0 -83 3 203 1 0 .61 15 196 61 0 162 189
 216 17 162 0 196 162 162 0 156 37 0 0 -83 3 194 1 0 .61 15 161 38 0 156 186 0 8
1 1 178 112 58 176 0 0 174 181 231 83 3 183 1 0 .61 81 1 174 111 58 170 0 0 165
 178 232 83 3 231 1 0 .61 81 1 165 110 58 164 0 0 159 174 233 83 3 232 1 0 .61 8
3 3 233 1 0 .61 83 3 166 1 0 .61 83 3 160 1 0 .61 19 150 5 0 5 0 36 33 S74 20 14
8 5 0 224 227 146 31 181 0 0 0 0 0 0 0 0 0 0 0 0 0 0 0 84 5 147 CSG_381 1 24 101
 45 4 234 0 0 0 235 70 25 0 4 T4 0 0 5 20 1 236 236 13 26 3 0 4 0 237 0 0 238 0
 51 27 18 0 239 240 0 0 +.38 786645153062738e-42 -.23 1 510341196927923e-26 -510
341196927923e-26 .25 -510341196927923e-26 1 0 31 28 40 0 30 241 0 0 +.38 7825500
17979244e-42 -.23 -1 -510341196927923e-26 510341196927923e-26 510341196927923e-2
6 0 1 .23 19 29 1 0 4 238 0 242 V16 30 37 243 ?244 0 245 28 0 0 4 81 1 243 108 5
8 30 0 0 246 247 248 17 244 0 249 244 244 0 250 30 0 0 +16 245 32 247 ?251 30 25
2 241 0 0 4 81 1 247 109 58 245 0 0 243 253 254 17 251 0 255 251 251 0 256 245 0
 0 +16 252 27 253 ?257 245 258 259 0 0 4 31 241 35 0 245 259 28 0 +.53 765511795
391885e-27 -.2300000000007655 1 510341196927923e-26 -510341196927923e-26 -510341
196927923e-26 0 -1 .23 31 259 30 0 252 260 241 0 -.51 6634435560063e-25 -.230000
0000006635 1 510341196927923e-26 -510341196927923e-26 -510341196927923e-26 0 -1
 .25 31 260 25 0 258 261 259 0 -.4 1020682393855854e-28 -.230000000000102 -1 -51
0341196927923e-26 510341196927923e-26 510341196927923e-26 0 1 .25 16 258 22 262
 ?263 252 264 260 0 0 4 31 261 95 0 264 265 260 0 +.53 765511795391885e-27 -.230
0000000007655 -1 -510341196927923e-26 510341196927923e-26 510341196927923e-26 -1
 0 .17 16 264 81 266 ?267 258 268 261 0 0 4 31 265 96 0 268 0 261 0 +.38 7866451
53062738e-42 -.23 1 510341196927923e-26 -510341196927923e-26 -510341196927923e-2
6 1 0 .17 16 268 82 269 ?270 264 0 265 0 0 4 81 1 269 113 58 268 0 0 266 0 271 1
7 270 0 272 270 270 0 273 268 0 0 +15 272 71 0 270 274 249 17 273 0 275 273 273
 0 270 268 0 0 -15 275 89 0 273 276 0 14 276 87 246 ?0 277 278 26 279 -0 0 0 277
 242 81 1 246 107 58 276 280 0 281 243 282 14 277 60 281 ?276 283 284 26 285 +0
 0 276 283 242 15 278 88 0 286 276 275 51 279 92 0 276 0 285 0 +.38 786645153062
738e-42 -.23 1 510341196927923e-26 -510341196927923e-26 .17 -510341196927923e-26
 1 0 13 242 4 0 0 0 0 0 0 29 237 14 237 15 287 ?274 0 288 26 240 +0 0 274 0 242
 81 1 287 102 58 237 289 0 0 290 291 14 274 9 290 ?239 237 272 26 292 +0 0 239 2
37 242 15 288 76 0 267 237 255 50 240 17 0 237 292 27 0 +.53 765511795391885e-27
 -.2300000000007655 1 510341196927923e-26 -510341196927923e-26 -510341196927923e
-26 1 0 50 292 11 0 274 293 240 0 +.38 786645153062738e-42 -.23 -1 -510341196927
923e-26 510341196927923e-26 510341196927923e-26 -1 0 54 293 54 0 283 285 292 0 +
.51 6634435560063e-25 -.2300000000006635 1 510341196927923e-26 -510341196927923e
-26 .23 .02 -510341196927923e-26 0 -1 14 283 47 294 ?277 239 295 26 293 +0 0 277
 239 242 54 285 67 0 277 279 293 0 +.4 1020682393855854e-28 -.230000000000102 -1
 -510341196927923e-26 510341196927923e-26 .23 .02 510341196927923e-26 0 1 81 1 2
94 105 58 283 296 0 297 281 298 14 239 2 297 ?283 274 299 26 27 +0 0 283 274 242
 15 295 48 0 256 283 300 17 256 0 295 256 256 0 251 245 0 0 -15 300 49 0 301 283
 0 17 301 0 300 301 301 0 257 252 0 0 -17 257 0 299 257 257 0 301 252 0 0 +15 29
9 28 0 257 239 302 15 302 23 0 263 239 0 17 263 0 302 263 263 0 303 258 0 0 +17
 303 0 304 303 303 0 263 258 0 0 -15 304 62 0 303 277 0 81 1 297 104 58 239 305
 0 290 294 306 91 305 0 307 239 0 297 0 308 81 1 290 103 58 274 308 0 287 297 30
9 83 3 306 1 0 .61 91 308 0 307 274 0 290 305 289 83 3 309 1 0 .61 90 307 19 0 4
 0 310 2 289 91 289 0 307 237 0 287 308 0 90 310 68 0 4 307 311 2 296 90 311 79
 0 4 310 312 2 280 91 296 0 310 283 0 294 313 0 91 313 0 310 277 0 281 0 296 81
 1 281 106 58 277 313 0 294 246 314 83 3 314 1 0 .61 81 2 312 98 129 4 311 315 0
 0 316 0 91 280 0 311 276 0 246 0 0 81 1 315 99 134 4 312 234 0 0 317 83 1 316 1
 81 1 234 100 138 4 315 24 0 0 318 82 1 317 19 84 6 318 roue_283 3 298 1 0 .61 1
7 267 0 288 267 267 0 286 264 0 0 +15 255 33 0 251 237 0 17 286 0 278 286 286 0
 267 264 0 0 -83 3 291 1 0 .61 15 284 61 0 250 277 304 17 250 0 284 250 250 0 24
4 30 0 0 -83 3 282 1 0 .61 15 249 38 0 244 274 0 81 1 266 112 58 264 0 0 262 269
 319 83 3 271 1 0 .61 81 1 262 111 58 258 0 0 253 266 320 83 3 319 1 0 .61 81 1
 253 110 58 252 0 0 247 262 321 83 3 320 1 0 .61 83 3 321 1 0 .61 83 3 254 1 0 .
61 83 3 248 1 0 .61 19 238 5 0 4 0 29 26 S74 20 236 5 0 312 315 234 24 269 0 0 0
 0 0 0 0 0 0 0 0 0 0 0 0 84 5 235 CSG_381 1 17 101 45 3 322 0 0 0 323 70 18 0 4
 T3 0 0 5 20 1 324 324 13 19 3 0 3 0 325 0 0 326 0 51 20 18 0 327 328 0 0 +.38 3
09538185401523e-42 -.23 1 510341196927923e-26 -510341196927923e-26 .25 -51034119
6927923e-26 1 0 31 21 40 0 23 329 0 0 +.38 315544362088405e-42 -.23 -1 -51034119
6927923e-26 510341196927923e-26 510341196927923e-26 0 1 .23 19 22 1 0 3 326 0 33
0 V16 23 37 331 ?332 0 333 21 0 0 3 81 1 331 108 58 23 0 0 334 335 336 17 332 0
 337 332 332 0 338 23 0 0 +16 333 32 335 ?339 23 340 329 0 0 3 81 1 335 109 58 3
33 0 0 331 341 342 17 339 0 343 339 339 0 344 333 0 0 +16 340 27 341 ?345 333 34
6 347 0 0 3 31 329 35 0 333 347 21 0 +.53 765511795391884e-27 -.2300000000007655
 1 510341196927923e-26 -510341196927923e-26 -510341196927923e-26 0 -1 .23 31 347
 30 0 340 348 329 0 -.51 6634435560063e-25 -.2300000000006635 1 510341196927923e
-26 -510341196927923e-26 -510341196927923e-26 0 -1 .25 31 348 25 0 346 349 347 0
 -.4 102068239385585e-27 -.230000000000102 -1 -510341196927923e-26 5103411969279
23e-26 510341196927923e-26 0 1 .25 16 346 22 350 ?351 340 352 348 0 0 3 31 349 9
5 0 352 353 348 0 +.53 765511795391885e-27 -.2300000000007655 -1 -51034119692792
3e-26 510341196927923e-26 510341196927923e-26 -1 0 .17 16 352 81 354 ?355 346 35
6 349 0 0 3 31 353 96 0 356 0 349 0 +.38 309538185401523e-42 -.23 1 510341196927
923e-26 -510341196927923e-26 -510341196927923e-26 1 0 .17 16 356 82 357 ?358 352
 0 353 0 0 3 81 1 357 113 58 356 0 0 354 0 359 17 358 0 360 358 358 0 361 356 0
 0 +15 360 71 0 358 362 337 17 361 0 363 361 361 0 358 356 0 0 -15 363 89 0 361
 364 0 14 364 87 334 ?0 365 366 19 367 -0 0 0 365 330 81 1 334 107 58 364 368 0
 369 331 370 14 365 60 369 ?364 371 372 19 373 +0 0 364 371 330 15 366 88 0 374
 364 363 51 367 92 0 364 0 373 0 +.38 309538185401523e-42 -.23 1 510341196927923
e-26 -510341196927923e-26 .17 -510341196927923e-26 1 0 13 330 4 0 0 0 0 0 0 22 3
25 14 325 15 375 ?362 0 376 19 328 +0 0 362 0 330 81 1 375 102 58 325 377 0 0 37
8 379 14 362 9 378 ?327 325 360 19 380 +0 0 327 325 330 15 376 76 0 355 325 343
 50 328 17 0 325 380 20 0 +.53 765511795391885e-27 -.2300000000007655 1 51034119
6927923e-26 -510341196927923e-26 -510341196927923e-26 1 0 50 380 11 0 362 381 32
8 0 +.38 309538185401523e-42 -.23 -1 -510341196927923e-26 510341196927923e-26 51
0341196927923e-26 -1 0 54 381 54 0 371 373 380 0 +.51 6634435560063e-25 -.230000
0000006635 1 510341196927923e-26 -510341196927923e-26 .23 .02 -510341196927923e-
26 0 -1 14 371 47 382 ?365 327 383 19 381 +0 0 365 327 330 54 373 67 0 365 367 3
81 0 +.4 102068239385585e-27 -.230000000000102 -1 -510341196927923e-26 510341196
927923e-26 .23 .02 510341196927923e-26 0 1 81 1 382 105 58 371 384 0 385 369 386
 14 327 2 385 ?371 362 387 19 20 +0 0 371 362 330 15 383 48 0 344 371 388 17 344
 0 383 344 344 0 339 333 0 0 -15 388 49 0 389 371 0 17 389 0 388 389 389 0 345 3
40 0 0 -17 345 0 387 345 345 0 389 340 0 0 +15 387 28 0 345 327 390 15 390 23 0
 351 327 0 17 351 0 390 351 351 0 391 346 0 0 +17 391 0 392 391 391 0 351 346 0
 0 -15 392 62 0 391 365 0 81 1 385 104 58 327 393 0 378 382 394 91 393 0 395 327
 0 385 0 396 81 1 378 103 58 362 396 0 375 385 397 83 3 394 1 0 .61 91 396 0 395
 362 0 378 393 377 83 3 397 1 0 .61 90 395 19 0 3 0 398 2 377 91 377 0 395 325 0
 375 396 0 90 398 68 0 3 395 399 2 384 90 399 79 0 3 398 400 2 368 91 384 0 398
 371 0 382 401 0 91 401 0 398 365 0 369 0 384 81 1 369 106 58 365 401 0 382 334
 402 83 3 402 1 0 .61 81 2 400 98 129 3 399 403 0 0 404 0 91 368 0 399 364 0 334
 0 0 81 1 403 99 134 3 400 322 0 0 405 83 1 404 1 81 1 322 100 138 3 403 17 0 0
 406 82 1 405 6 84 4 406 roue83 3 386 1 0 .61 17 355 0 376 355 355 0 374 352 0 0
 +15 343 33 0 339 325 0 17 374 0 366 374 374 0 355 352 0 0 -83 3 379 1 0 .61 15
 372 61 0 338 365 392 17 338 0 372 338 338 0 332 23 0 0 -83 3 370 1 0 .61 15 337
 38 0 332 362 0 81 1 354 112 58 352 0 0 350 357 407 83 3 359 1 0 .61 81 1 350 11
1 58 346 0 0 341 354 408 83 3 407 1 0 .61 81 1 341 110 58 340 0 0 335 350 409 83
 3 408 1 0 .61 83 3 409 1 0 .61 83 3 342 1 0 .61 83 3 336 1 0 .61 19 326 5 0 3 0
 22 19 S74 20 324 5 0 400 403 322 17 357 0 0 0 0 0 0 0 0 0 0 0 0 0 0 0 84 5 323
 CSG_381 1 7 71 45 2 410 0 0 0 411 70 8 0 4 T2 0 0 4 20 1 412 412 13 10 66 0 2 0
 413 0 0 414 0 50 11 65 0 413 415 0 0 +66.1 -.2499999991324575 -47.0000000008678
 1020637984929652e-26 51034119693834e-25 1 1 1020637984929652e-26 -1020637984934
86e-25 30 255 12 61 0 15 416 0 0 +-18.9000000000005 -.25 -47 102063798493486e-25
 -1 510341196927923e-26 29 255 13 16 0 16 417 0 66.1 -.2499999991324575 -47.0000
000008678 19 14 1 0 2 414 0 418 V16 15 49 419 ?420 0 421 12 0 0 2 18 255 16 13 0
 422 0 423 13 ?2 17 422 0 424 425 426 16 427 428 0 429 +18 423 9 0 426 16 430 41
7 ?2 17 426 0 424 422 431 423 432 433 0 434 +18 430 5 0 431 423 435 436 ?2 29 41
7 12 0 423 436 13 66.1000000005098 -.249999998877287 2.9999999991322 29 436 8 0
 430 437 417 -18.8999999994902 -.2499999997448295 2.999999999999745 29 437 4 0 4
35 438 436 -18.9000000000005 -.25 -47 18 435 2 0 439 430 440 437 ?2 29 438 42 0
 440 441 437 66.1 -.2999999991324575 -47.0000000008675 18 440 33 0 442 435 443 4
38 ?2 29 441 43 0 443 444 438 66.1000000005103 -.299999998877287 2.9999999991324
55 18 443 34 0 445 440 446 441 ?2 29 444 44 0 446 447 441 -18.8999999994897 -.29
99999997448295 3 18 446 35 0 448 443 449 444 ?2 29 447 45 0 449 0 444 -18.9 -.3
 -47 18 449 36 0 450 446 0 447 ?2 17 450 0 451 452 453 449 448 454 0 420 -15 451
 28 0 452 455 0 17 452 0 451 456 450 440 457 458 0 0 -17 453 0 451 450 456 446 4
45 459 0 0 -17 448 0 460 461 420 446 450 454 0 462 +16 454 31 463 ?448 459 458 4
64 0 0 2 17 420 0 460 448 439 449 465 15 0 457 +15 460 54 0 448 466 0 17 439 0 4
60 420 461 435 431 467 0 425 -17 465 0 468 469 457 435 420 15 0 0 -17 457 0 468
 465 470 449 452 458 0 0 +15 468 56 0 457 413 0 17 470 0 468 457 469 440 429 471
 0 452 +16 458 32 472 ?457 454 0 473 0 0 2 81 1 472 89 58 458 0 0 463 0 474 30 4
73 38 0 458 475 476 0 +66.1 -.2999999991324575 -47.0000000008675 -1 -10206379849
29652e-26 102063798493486e-25 30 475 39 0 477 478 473 0 +66.1000000005103 -.2999
99998877287 2.999999999132455 -1020637984929652e-26 -51034119693834e-25 -1 30 47
6 7 0 467 473 479 0 +-18.9000000000005 -.25 -47 1020637984929652e-26 51034119693
834e-25 1 16 467 6 480 ?431 433 481 476 0 0 2 30 479 11 0 433 476 482 0 +-18.899
9999994902 -.2499999997448295 2.999999999999745 1 1020637984929652e-26 -10206379
8493486e-25 16 433 10 483 ?426 428 467 479 0 0 2 30 482 15 0 428 479 484 0 +66.1
000000005098 -.249999998877287 2.9999999991322 -1020637984929652e-26 -5103411969
3834e-25 -1 16 428 14 485 ?422 471 433 482 0 0 2 30 484 18 0 481 482 486 0 +66.1
 -.2499999991324575 -47.0000000008678 -1 -1020637984929652e-26 102063798493486e-
25 16 481 17 487 ?425 467 477 484 0 0 2 30 486 58 0 471 484 488 0 +66.1 -.249999
9991324575 -47.0000000008678 102063798493486e-25 -1 510341196927923e-26 16 471 4
6 489 ?470 490 428 486 0 0 2 30 488 59 0 490 486 416 0 +66.1000000005098 -.24999
9998877287 2.9999999991322 102063798493486e-25 -1 510341196927923e-26 16 490 47
 491 ?492 421 471 488 0 0 2 30 416 60 0 421 488 12 0 +-18.8999999994902 -.249999
9997448295 2.999999999999745 102063798493486e-25 -1 510341196927923e-26 16 421 4
8 493 ?462 15 490 416 0 0 2 81 1 493 79 58 421 0 0 419 491 494 17 462 0 495 445
 432 446 461 421 0 453 +15 495 52 0 445 496 0 17 445 0 495 434 462 443 453 459 0
 492 +17 432 0 495 462 434 430 426 433 0 0 -17 461 0 460 439 448 430 462 421 0 4
32 -17 434 0 495 432 445 423 492 490 0 427 -17 492 0 497 442 427 443 434 490 0 4
56 +17 427 0 497 492 429 423 422 428 0 0 -15 497 50 0 442 498 0 17 429 0 497 427
 442 16 470 471 0 469 -17 442 0 497 429 492 440 456 477 0 470 +17 469 0 468 470
 465 16 425 481 0 0 -17 425 0 424 431 422 435 469 481 0 465 +15 424 19 0 425 499
 0 17 431 0 424 426 425 430 439 467 0 461 +14 499 20 500 ?455 498 424 10 501 -0
 0 455 498 418 81 1 500 76 58 499 502 0 503 504 505 14 455 27 504 ?0 499 451 10
 506 +0 0 0 499 418 14 498 51 503 ?499 496 497 10 507 -0 0 499 496 418 50 501 21
 0 499 506 507 0 +66.1 -.2499999991324575 -47.0000000008678 102063798493486e-25
 -1 510341196927923e-26 -1 -1020637984929652e-26 102063798493486e-25 13 418 3 0
 0 0 0 0 0 14 413 14 413 57 508 ?466 0 468 10 11 -0 0 466 0 418 81 1 508 72 58 4
13 509 0 0 510 511 14 466 55 510 ?496 413 460 10 415 -0 0 496 413 418 81 1 510 7
3 58 466 512 0 508 513 514 14 496 53 513 ?498 466 495 10 515 -0 0 498 466 418 50
 415 64 0 466 515 11 0 +-18.9000000000005 -.25 -47 1 1020637984929652e-26 -10206
3798493486e-25 -1020637984929652e-26 -51034119693834e-25 -1 50 515 63 0 496 507
 415 0 +-18.8999999994902 -.2499999997448295 2.999999999999745 -1020637984929652
e-26 -51034119693834e-25 -1 -102063798493486e-25 1 -510341196927923e-26 50 507 6
2 0 498 501 515 0 +66.1000000005098 -.249999998877287 2.9999999991322 -1 -102063
7984929652e-26 102063798493486e-25 -102063798493486e-25 1 -510341196927923e-26 8
1 1 513 74 58 496 516 0 510 503 517 91 516 0 518 496 0 513 519 512 81 1 503 75 5
8 498 519 0 513 500 520 83 3 517 0 1 0 91 519 0 518 498 0 503 502 516 83 3 520 0
 1 0 90 518 68 0 2 0 521 2 509 91 502 0 518 499 0 500 522 519 91 522 0 518 455 0
 504 0 502 81 1 504 77 58 455 522 0 500 419 523 81 1 419 78 58 15 0 0 504 493 52
4 83 3 523 0 1 0 83 3 524 0 1 0 81 1 521 69 134 2 518 410 0 0 525 91 509 0 518 4
13 0 508 512 0 91 512 0 518 466 0 510 516 509 81 1 410 70 138 2 521 7 0 0 526 82
 1 525 1 84 6 526 ground83 3 514 0 1 0 83 3 511 0 1 0 50 506 37 0 455 0 501 0 +6
6.1 -.2999999991324575 -47.0000000008675 102063798493486e-25 -1 510341196927923e
-26 -1 -1020637984929652e-26 102063798493486e-25 83 3 505 0 1 0 17 456 0 451 453
 452 443 442 477 0 0 -16 477 29 527 ?442 481 459 475 0 0 2 81 1 527 86 58 477 0
 0 487 528 529 16 459 30 528 ?445 477 454 478 0 0 2 81 1 528 87 58 459 0 0 527 4
63 530 30 478 40 0 459 464 475 0 +-18.8999999994897 -.2999999997448295 3 1 10206
37984929652e-26 -102063798493486e-25 30 464 41 0 454 0 478 0 +-18.9 -.3 -47 1020
637984929652e-26 51034119693834e-25 1 81 1 463 88 58 454 0 0 528 472 531 83 3 53
0 0 1 0 83 3 531 0 1 0 81 1 487 85 58 481 0 0 480 527 532 83 3 529 0 1 0 81 1 48
0 84 58 467 0 0 483 487 533 83 3 532 0 1 0 81 1 483 83 58 433 0 0 485 480 534 83
 3 533 0 1 0 81 1 485 82 58 428 0 0 489 483 535 83 3 534 0 1 0 81 1 489 81 58 47
1 0 0 491 485 536 83 3 535 0 1 0 81 1 491 80 58 490 0 0 493 489 537 83 3 536 0 1
 0 83 3 537 0 1 0 83 3 494 0 1 0 83 3 474 0 1 0 19 414 67 0 2 0 14 10 S74 20 412
 4 0 521 410 7 472 0 0 0 0 0 0 0 0 0 0 0 0 0 0 0 0 84 14 411 EXTRUSION_35031 0 
